<mxfile host="app.diagrams.net" modified="2024-03-25T19:18:00.219Z" agent="Mozilla/5.0 (Windows NT 10.0; Win64; x64; rv:124.0) Gecko/20100101 Firefox/124.0" etag="ngwreaX0p8wyJE-kYwkz" version="24.0.7" type="device">
  <diagram name="Page-1" id="03018318-947c-dd8e-b7a3-06fadd420f32">
    <mxGraphModel dx="1434" dy="774" grid="1" gridSize="10" guides="1" tooltips="1" connect="1" arrows="1" fold="1" page="1" pageScale="1" pageWidth="1100" pageHeight="850" background="none" math="0" shadow="0">
      <root>
        <mxCell id="0" />
        <mxCell id="1" parent="0" />
        <mxCell id="677b7b8949515195-1" value="" style="whiteSpace=wrap;html=1;rounded=0;shadow=0;labelBackgroundColor=none;strokeColor=#000000;strokeWidth=1;fillColor=none;fontFamily=Verdana;fontSize=12;fontColor=#000000;align=center;comic=1;" parent="1" vertex="1">
          <mxGeometry x="140" y="20" width="940" height="620" as="geometry" />
        </mxCell>
        <mxCell id="677b7b8949515195-2" value="My Campus Marketplace" style="whiteSpace=wrap;html=1;rounded=0;shadow=0;labelBackgroundColor=none;strokeWidth=1;fontFamily=Verdana;fontSize=28;align=center;comic=1;" parent="1" vertex="1">
          <mxGeometry x="330" y="60" width="580" height="50" as="geometry" />
        </mxCell>
        <mxCell id="677b7b8949515195-9" value="" style="line;strokeWidth=1;html=1;rounded=0;shadow=0;labelBackgroundColor=none;fillColor=none;fontFamily=Verdana;fontSize=14;fontColor=#000000;align=center;comic=1;" parent="1" vertex="1">
          <mxGeometry x="140" y="140" width="940" height="10" as="geometry" />
        </mxCell>
        <mxCell id="ODrWaUg-teJTPfAjZcWi-1" value="Welcome, (User)" style="text;html=1;align=center;verticalAlign=middle;whiteSpace=wrap;rounded=0;" vertex="1" parent="1">
          <mxGeometry x="920" y="40" width="140" height="30" as="geometry" />
        </mxCell>
        <mxCell id="ODrWaUg-teJTPfAjZcWi-2" value="Sign Out" style="shape=rectangle;strokeColor=none;fillColor=none;linkText=;fontSize=12;fontColor=#0000ff;fontStyle=4;html=1;align=center;" vertex="1" parent="1">
          <mxGeometry x="915" y="100" width="150" height="30" as="geometry" />
        </mxCell>
        <mxCell id="ODrWaUg-teJTPfAjZcWi-3" value="My Listings" style="shape=rectangle;strokeColor=none;fillColor=none;linkText=;fontSize=12;fontColor=#0000ff;fontStyle=4;html=1;align=center;" vertex="1" parent="1">
          <mxGeometry x="915" y="70" width="150" height="30" as="geometry" />
        </mxCell>
        <mxCell id="ODrWaUg-teJTPfAjZcWi-4" value="List New Item" style="rounded=1;whiteSpace=wrap;html=1;sketch=1;curveFitting=1;jiggle=2;fontSize=18;" vertex="1" parent="1">
          <mxGeometry x="465" y="180" width="310" height="60" as="geometry" />
        </mxCell>
        <mxCell id="ODrWaUg-teJTPfAjZcWi-5" value="For Sale" style="rounded=1;whiteSpace=wrap;html=1;sketch=1;curveFitting=1;jiggle=2;fontSize=18;" vertex="1" parent="1">
          <mxGeometry x="465" y="280" width="310" height="60" as="geometry" />
        </mxCell>
      </root>
    </mxGraphModel>
  </diagram>
</mxfile>
